# xmcd
#
# Track frame offsets:
#	150
#	16336
#	33759
#	48572
#	61722
#	76682
#	91575
#	106528
#	118657
#	135909
#
# Disc length: 2026 seconds
#
# Revision: 2572747008
# Processed by: cddbd v1.5.2PL0 Copyright (c) Steve Scherf et al.
# Submitted via: EZCDAudioConverter 8.0.7.1
#
DISCID=6007e80a
DTITLE=Ray Wylie Hubbard - The Ruffian's Misfortune
DYEAR=2016
DGENRE=Country
TTITLE0=All Loose Things
TTITLE1=Hey Mama, My Time Ain't Long
TTITLE2=Too Young Ripe, Too Young Rotten
TTITLE3=Chick Singer Badass Rockin'
TTITLE4=Bad On Ford's
TTITLE5=Mr. Musselwhite's Blues
TTITLE6=Down By The River
TTITLE7=Jessie Mae
TTITLE8=Barefoot In Heaven
TTITLE9=Stone Blind Horses
EXTD=
EXTT0=
EXTT1=
EXTT2=
EXTT3=
EXTT4=
EXTT5=
EXTT6=
EXTT7=
EXTT8=
EXTT9=
PLAYORDER=
